# File created by Blade
# Date/Time:  Thu Sep 25 14:26:36 2014
# Frame Rate: 120.000 fps
#------------------------------------------------------
:FULLY-SPECIFIED
:DEGREES
650
root 15.874378 32.039424 -0.319710 -60.477424 86.009500 -49.803978
Spine -22.754819 9.049619 6.150689
Head 8.849946 -8.488819 2.687183
LeftShoulder -6.825959 12.779076 22.593641
LeftArm 40.155136 -12.996316 -34.205288
LeftForeArm -2.339797 -0.000000 26.904241
LeftHand -20.560598 -0.000000 3.818785
LeftHandThumb1 -26.253704 0.000000 33.147579
RightShoulder -15.277374 19.073799 -31.274361
RightArm 16.895141 -7.984051 45.698198
RightForeArm -19.810727 -0.000000 28.332672
RightHand -6.429304 -0.000000 -7.807549
RightHandThumb1 -24.326973 -0.000000 -32.862282
LeftUpLeg 13.581606 7.998494 20.329998
LeftLeg 7.942756 -0.000000 -0.000000
LeftFoot -17.194411 6.363460 -25.474487
LeftToeBase 6.510935 -0.000000 -0.000000
RightUpLeg 13.125520 -11.431608 -8.230169
RightLeg 11.431436 -0.000000 -0.000000
RightFoot -16.643791 -5.497813 1.500081
RightToeBase 0.929351 -0.000000 -0.000000
651
root 15.877333 32.042570 -0.343321 -59.569785 86.092222 -48.856664
Spine -22.795158 9.041791 6.041377
Head 9.106613 -8.469385 2.707462
LeftShoulder -6.760944 12.735417 22.679656
LeftArm 40.214179 -13.156923 -34.076150
LeftForeArm -2.168928 -0.000000 27.003268
LeftHand -20.577239 -0.000000 3.909722
LeftHandThumb1 -26.253704 0.000000 33.147579
RightShoulder -15.281743 19.018132 -31.277366
RightArm 17.091079 -7.848259 45.619441
RightForeArm -19.875324 -0.000000 28.397483
RightHand -6.495414 0.000000 -8.112220
RightHandThumb1 -24.326973 -0.000000 -32.862282
LeftUpLeg 13.742772 7.750706 20.128439
LeftLeg 7.644170 -0.000000 -0.000000
LeftFoot -16.993050 6.585574 -26.072975
LeftToeBase 6.952631 -0.000000 -0.000000
RightUpLeg 13.167271 -11.441322 -8.394928
RightLeg 11.430420 -0.000000 -0.000000
RightFoot -16.659920 -5.454649 1.565354
RightToeBase 1.012720 -0.000000 -0.000000
652
root 15.877999 32.046281 -0.365093 -58.631206 86.156510 -47.893227
Spine -22.844339 9.045389 5.942346
Head 9.352003 -8.472579 2.731150
LeftShoulder -6.673595 12.675597 22.780921
LeftArm 40.253710 -13.320845 -33.990015
LeftForeArm -2.081839 -0.000000 27.088591
LeftHand -20.703994 0.000000 4.083718
LeftHandThumb1 -26.253704 0.000000 33.147579
RightShoulder -15.269562 18.980637 -31.241691
RightArm 17.287329 -7.701838 45.503630
RightForeArm -19.835664 -0.000000 28.457222
RightHand -6.516580 -0.000000 -7.995688
RightHandThumb1 -24.326973 -0.000000 -32.862282
LeftUpLeg 13.908803 7.571834 19.970724
LeftLeg 7.340462 -0.000000 -0.000000
LeftFoot -16.822934 6.745002 -26.570289
LeftToeBase 7.261929 -0.000000 -0.000000
RightUpLeg 13.173524 -11.434644 -8.527884
RightLeg 11.457972 -0.000000 -0.000000
RightFoot -16.648429 -5.471831 1.551268
RightToeBase 0.989833 -0.000000 -0.000000
653
root 15.877949 32.049765 -0.384814 -57.425369 86.189514 -46.670757
Spine -22.865083 9.081067 5.868794
Head 9.531130 -8.458802 2.754027
LeftShoulder -6.620929 12.584661 22.870659
LeftArm 40.280416 -13.518711 -34.007246
LeftForeArm -1.893653 -0.000000 27.239240
LeftHand -20.776227 -0.000000 4.375818
LeftHandThumb1 -26.253704 0.000000 33.147579
RightShoulder -15.302562 19.007926 -31.262434
RightArm 17.444692 -7.554622 45.447604
RightForeArm -19.959885 0.000000 28.518975
RightHand -6.447859 0.000000 -7.846479
RightHandThumb1 -24.326973 -0.000000 -32.862282
LeftUpLeg 14.085573 7.561535 19.869137
LeftLeg 7.055062 -0.000000 -0.000000
LeftFoot -16.715929 6.694724 -26.782492
LeftToeBase 7.459253 -0.000000 -0.000000
RightUpLeg 13.155439 -11.410037 -8.635366
RightLeg 11.498289 -0.000000 -0.000000
RightFoot -16.650406 -5.489502 1.533278
RightToeBase 1.020019 -0.000000 -0.000000
654
root 15.872714 32.052935 -0.404439 -56.388227 86.227276 -45.642386
Spine -22.900866 9.091018 5.802672
Head 9.704708 -8.407265 2.786511
LeftShoulder -6.557585 12.491875 22.945942
LeftArm 40.247408 -13.634249 -33.856526
LeftForeArm -1.968436 -0.000000 27.347258
LeftHand -20.821472 0.000000 4.474149
LeftHandThumb1 -26.253704 0.000000 33.147579
RightShoulder -15.297741 19.075688 -31.294656
RightArm 17.494752 -7.375347 45.422708
RightForeArm -20.129170 -0.000000 28.682426
RightHand -6.503978 -0.000000 -8.073214
RightHandThumb1 -24.326973 -0.000000 -32.862282
LeftUpLeg 14.202633 7.589801 19.777448
LeftLeg 6.839371 -0.000000 -0.000000
LeftFoot -16.631760 6.570139 -26.795371
LeftToeBase 7.664294 -0.000000 -0.000000
RightUpLeg 13.093642 -11.372120 -8.725394
RightLeg 11.558765 -0.000000 -0.000000
RightFoot -16.658047 -5.526746 1.521803
RightToeBase 1.105456 -0.000000 -0.000000
655
root 15.864471 32.055284 -0.423305 -55.397747 86.252813 -44.680446
Spine -22.929224 9.085349 5.763687
Head 9.814461 -8.336977 2.806827
LeftShoulder -6.527746 12.428659 23.013694
LeftArm 40.290739 -13.887702 -33.888450
LeftForeArm -1.916607 -0.000000 27.400498
LeftHand -20.853938 -0.000000 4.456161
LeftHandThumb1 -26.253704 0.000000 33.147579
RightShoulder -15.254006 19.152033 -31.238668
RightArm 17.579785 -7.270284 45.248148
RightForeArm -20.077064 -0.000000 28.875967
RightHand -6.515692 -0.000000 -8.046617
RightHandThumb1 -24.326973 -0.000000 -32.862282
LeftUpLeg 14.280541 7.653901 19.707641
LeftLeg 6.647715 -0.000000 -0.000000
LeftFoot -16.533893 6.385689 -26.910129
LeftToeBase 7.740442 -0.000000 -0.000000
RightUpLeg 12.997264 -11.422855 -8.822826
RightLeg 11.642999 -0.000000 -0.000000
RightFoot -16.653114 -5.493155 1.460701
RightToeBase 1.073463 -0.000000 -0.000000
656
root 15.855352 32.057278 -0.441636 -54.393545 86.294877 -43.715133
Spine -22.950931 9.063430 5.705096
Head 9.870913 -8.261589 2.830783
LeftShoulder -6.518863 12.366710 23.085877
LeftArm 40.267244 -14.030820 -33.808910
LeftForeArm -1.952998 -0.000000 27.525338
LeftHand -20.864165 0.000000 4.685501
LeftHandThumb1 -26.253704 0.000000 33.147579
RightShoulder -15.225995 19.211646 -31.241531
RightArm 17.672560 -7.059504 45.208353
RightForeArm -20.012119 -0.000000 29.003374
RightHand -6.299216 -0.000000 -7.830944
RightHandThumb1 -24.326973 -0.000000 -32.862282
LeftUpLeg 14.308624 7.687970 19.609994
LeftLeg 6.520748 -0.000000 -0.000000
LeftFoot -16.514768 6.240165 -26.818481
LeftToeBase 7.872622 -0.000000 -0.000000
RightUpLeg 12.885103 -11.442450 -8.919396
RightLeg 11.741546 -0.000000 -0.000000
RightFoot -16.669986 -5.476810 1.434808
RightToeBase 1.112737 -0.000000 -0.000000
657
root 15.845090 32.058732 -0.457526 -53.493719 86.321723 -42.846841
Spine -22.935228 9.051735 5.667391
Head 9.875986 -8.201335 2.841201
LeftShoulder -6.504811 12.283500 23.148770
LeftArm 40.258435 -14.220170 -33.767887
LeftForeArm -1.946854 -0.000000 27.592293
LeftHand -20.906801 -0.000000 4.880710
LeftHandThumb1 -26.253704 0.000000 33.147579
RightShoulder -15.217223 19.319113 -31.290016
RightArm 17.713321 -6.889291 45.184578
RightForeArm -20.139505 0.000000 29.161632
RightHand -6.375569 -0.000000 -7.753501
RightHandThumb1 -24.326973 -0.000000 -32.862282
LeftUpLeg 14.300338 7.649609 19.511759
LeftLeg 6.489575 -0.000000 -0.000000
LeftFoot -16.575060 6.086740 -26.673175
LeftToeBase 7.911828 -0.000000 -0.000000
RightUpLeg 12.772403 -11.419616 -8.985350
RightLeg 11.850170 -0.000000 -0.000000
RightFoot -16.693478 -5.508243 1.377440
RightToeBase 1.131732 -0.000000 -0.000000
658
root 15.833430 32.059889 -0.472756 -52.627351 86.353676 -42.010742
Spine -22.902024 9.035154 5.624672
Head 9.850566 -8.139317 2.864612
LeftShoulder -6.458934 12.222364 23.217020
LeftArm 40.240305 -14.459370 -33.728473
LeftForeArm -1.929191 -0.000000 27.621419
LeftHand -20.941324 -0.000000 4.877428
LeftHandThumb1 -26.253704 0.000000 33.147579
RightShoulder -15.190714 19.382766 -31.318498
RightArm 17.794191 -6.605663 45.179713
RightForeArm -20.251883 -0.000000 29.262119
RightHand -6.290227 -0.000000 -7.682722
RightHandThumb1 -24.326973 -0.000000 -32.862282
LeftUpLeg 14.252118 7.543215 19.388377
LeftLeg 6.532452 -0.000000 -0.000000
LeftFoot -16.673829 5.917525 -26.546032
LeftToeBase 7.883958 -0.000000 -0.000000
RightUpLeg 12.662803 -11.416955 -9.061552
RightLeg 11.953912 -0.000000 -0.000000
RightFoot -16.716233 -5.497267 1.330169
RightToeBase 1.134359 -0.000000 -0.000000
659
root 15.822251 32.060715 -0.489193 -51.547796 86.382415 -40.955978
Spine -22.841729 9.028964 5.583951
Head 9.789498 -8.076728 2.882010
LeftShoulder -6.423303 12.187265 23.275665
LeftArm 40.174911 -14.634750 -33.599873
LeftForeArm -1.896523 -0.000000 27.710804
LeftHand -20.972776 -0.000000 5.028842
LeftHandThumb1 -26.253704 0.000000 33.147579
RightShoulder -15.130685 19.442729 -31.329705
RightArm 17.840883 -6.387173 45.104031
RightForeArm -20.176451 0.000000 29.417121
RightHand -6.262076 -0.000000 -7.686227
RightHandThumb1 -24.326973 -0.000000 -32.862282
LeftUpLeg 14.187031 7.408595 19.241782
LeftLeg 6.612784 -0.000000 -0.000000
LeftFoot -16.809400 5.842750 -26.373346
LeftToeBase 7.882366 -0.000000 -0.000000
RightUpLeg 12.564538 -11.410928 -9.153052
RightLeg 12.044393 -0.000000 -0.000000
RightFoot -16.740197 -5.447782 1.344006
RightToeBase 1.168229 -0.000000 -0.000000
